<svg xmlns="http://www.w3.org/2000/svg" version="1.1" xmlns:xlink="http://www.w3.org/1999/xlink" width="1000" height="1000"><metadata><rdf:RDF xmlns:rdf="http://www.w3.org/1999/02/22-rdf-syntax-ns#" xmlns:dc="http://purl.org/dc/elements/1.1/"><rdf:Description><dc:creator>RealFaviconGenerator</dc:creator><dc:source>https://realfavicongenerator.net</dc:source></rdf:Description></rdf:RDF></metadata><g clip-path="url(#SvgjsClipPath2417)"><rect width="1000" height="1000" fill="#ffffff"></rect><g transform="matrix(3.4722222222222223,0,0,3.4722222222222223,0,0)"><svg xmlns="http://www.w3.org/2000/svg" version="1.1" xmlns:xlink="http://www.w3.org/1999/xlink" xmlns:svgjs="http://svgjs.com/svgjs" id="SvgjsSvg1019" width="288" height="288"><defs id="SvgjsDefs1020"><clipPath id="SvgjsClipPath2417"><rect width="1000" height="1000" x="0" y="0" rx="500" ry="500"></rect></clipPath></defs><g id="SvgjsG1021"><svg xmlns="http://www.w3.org/2000/svg" display="block" preserveAspectRatio="none" viewBox="0 0 2048 2048" width="288" height="288"><path fill="#FFFFFE" d="M 0 0 L 2048 0 L 2048 2048 L 0 2048 L 0 0 z" class="svgShape colorfffffe-0 selectable"></path><path fill="#3156f5" d="M 681.082 483.384 C 702.977 480.5 726.243 483.88 746.001 493.908 C 773.932 508.025 794.85 532.98 803.874 562.947 C 812.089 590.205 809.573 661.474 809.589 693.228 L 809.528 965.529 L 809.436 1062.75 C 809.225 1110.82 806.445 1161.88 821.56 1208.07 C 865.507 1342.4 1018.77 1337.13 1129.19 1298.94 C 1092.03 1383.3 1110.71 1454.12 1164.73 1524.5 C 1143.39 1530.98 1119.74 1536.32 1097.89 1540.73 C 1088.44 1542.43 1078.95 1543.84 1069.42 1544.97 C 949.805 1559.63 825.038 1540.94 727.639 1465.76 C 645.106 1402.06 596.406 1307.24 584.774 1204.55 C 578.786 1151.69 580.409 1098.6 580.463 1045.23 L 580.543 820.834 L 580.362 667.365 C 580.34 657.941 580.328 648.394 580.289 638.975 C 580.109 595.207 576.845 561.143 605.6 524.808 C 624.15 501.391 651.367 486.455 681.082 483.384 z" class="svgShape color2066db-1 selectable"></path><path fill="#3156f5" d="M 1249.67 623.077 C 1254.66 627.592 1318.74 660.828 1326.01 659.131 C 1335.36 656.95 1391.3 631.294 1399.95 621.62 C 1402.68 618.575 1401.78 593.102 1401.7 585.515 C 1401.47 564.943 1401.41 544.369 1401.5 523.795 C 1401.52 515.16 1399.96 489.772 1405.27 483.434 C 1412.94 479.194 1421.77 486.912 1427.66 491.493 C 1474.03 527.557 1508.05 576.111 1509.08 637.058 C 1509.6 679.724 1493.39 720.898 1463.93 751.765 C 1440.41 776.651 1413.14 791.658 1405.95 829.012 C 1402.22 848.437 1403.1 867.512 1403.14 887.129 L 1403.22 951.025 C 1403.25 1018.43 1403.08 1085.9 1403.27 1153.39 C 1403.37 1187.71 1408.73 1212.71 1432.96 1238.58 C 1440.2 1246.3 1450.61 1254.29 1458.54 1261.97 C 1490.55 1293.04 1508.79 1335.64 1509.19 1380.25 C 1510.1 1440.32 1479.74 1493.57 1434.84 1531.91 C 1426.82 1538.77 1418.8 1547.26 1407.85 1547.38 C 1393.43 1534.25 1407.97 1424.1 1399.55 1401.79 C 1396.59 1393.93 1332.78 1364.79 1324.68 1362.35 L 1324.22 1362.51 C 1305.62 1368.64 1287.14 1380.84 1269.33 1388.08 C 1242.72 1398.88 1247.63 1410.08 1247.7 1434.96 L 1247.86 1506.22 C 1247.89 1516.55 1250.9 1540.77 1242.79 1546.86 C 1240.07 1547.59 1236.46 1548.02 1234.04 1546.39 C 1200.33 1523.69 1169.21 1487.89 1154.16 1450.99 C 1129.13 1389.6 1138.5 1319.25 1183.97 1270.5 C 1204.31 1249.15 1228.27 1234.23 1239.06 1205.26 C 1250.31 1175.07 1247.36 1141.34 1247.35 1109.37 L 1247.28 1001.17 L 1247.35 902.244 C 1247.35 885.105 1248 860.539 1246.67 843.931 C 1245.78 833.203 1243.25 822.675 1239.16 812.715 C 1227.29 784.065 1208.62 774.808 1187.89 754.101 C 1173.18 739.422 1161.5 721.992 1153.51 702.803 C 1136.8 662.025 1136.84 616.298 1153.64 575.553 C 1167.33 543.072 1188.45 517.178 1216.27 495.878 C 1223.18 490.587 1229.53 485.068 1237.63 481.787 C 1241.52 482.004 1246.23 483.852 1246.94 488.165 C 1248.58 498.028 1248.07 508.251 1248.02 518.201 L 1247.78 578.194 C 1247.77 591.522 1247.05 610.418 1249.67 623.077 z" class="svgShape color2066db-2 selectable"></path></svg></g></svg></g></g></svg>